<?xml version="1.0" standalone="no"?>
<!DOCTYPE svg PUBLIC "-//W3C//DTD SVG 20010904//EN"
 "http://www.w3.org/TR/2001/REC-SVG-20010904/DTD/svg10.dtd">
<svg version="1.0" xmlns="http://www.w3.org/2000/svg"
 width="210.000000pt" height="440.000000pt" viewBox="0 0 210.000000 440.000000"
 preserveAspectRatio="xMidYMid meet">
<metadata>
Created by potrace 1.16, written by Peter Selinger 2001-2019
</metadata>
<g transform="translate(0.000000,440.000000) scale(0.100000,-0.100000)"
fill="#000000" stroke="none">
<path d="M0 2180 l0 -2180 1035 0 1035 0 0 2180 0 2180 -1035 0 -1035 0 0
-2180z m1985 -20 l0 -2115 -952 -3 -953 -2 0 2120 0 2120 953 -2 952 -3 0
-2115z"/>
<path d="M370 3140 c0 -533 -5 -1047 -10 -1142 -37 -628 -71 -1351 -66 -1396
4 -33 33 -116 79 -222 l72 -170 560 0 560 0 85 177 c82 171 85 180 88 258 2
44 -10 427 -27 850 -29 714 -31 837 -31 1693 l0 922 -655 0 -655 0 0 -970z
m1230 -57 c0 -881 2 -1000 30 -1683 16 -404 30 -743 30 -752 0 -17 -37 -18
-645 -18 l-645 0 6 73 c2 39 20 376 39 748 35 673 35 681 35 1621 0 520 3 948
7 951 3 4 262 7 575 7 l568 0 0 -947z"/>
<path d="M985 3797 c-3 -7 -4 -152 -3 -322 l3 -310 48 -3 47 -3 0 325 0 326
-45 0 c-28 0 -48 -5 -50 -13z"/>
<path d="M934 1222 c-113 -53 -155 -195 -87 -299 38 -60 85 -87 158 -91 75 -5
119 13 168 68 114 125 29 327 -141 337 -41 3 -69 -2 -98 -15z m130 -76 c122
-51 88 -236 -44 -236 -130 0 -166 184 -46 236 40 17 49 17 90 0z"/>
</g>
</svg>
